<svg width="250" height="60" viewBox="0 0 250 60" fill="none" xmlns="http://www.w3.org/2000/svg">
<path d="M20.6882 27.2827V23.6284C20.6882 23.1432 20.3114 22.7495 19.8469 22.7495H4.23186C3.76699 22.7495 3.39062 23.1432 3.39062 23.6284V27.2827C3.39062 27.768 3.76699 28.1617 4.23186 28.1617H19.8469C20.3114 28.1617 20.6882 27.7684 20.6882 27.2827ZM19.0057 26.4038H5.0731V24.5073H19.0057V26.4038Z" fill="#24FF00"/>
<path d="M21.4155 50.8953H32.2714C32.7358 50.8953 33.1126 50.5016 33.1126 50.0164V46.3616C33.1126 45.8763 32.7358 45.4827 32.2714 45.4827H21.4155C20.9506 45.4827 20.5742 45.8763 20.5742 46.3616V50.0164C20.5742 50.5016 20.9506 50.8953 21.4155 50.8953ZM22.2567 47.2405H31.4301V49.1375H22.2567V47.2405Z" fill="#FFEB3B"/>
<path d="M32.2732 17.4253H4.23186C3.76699 17.4253 3.39062 17.819 3.39062 18.3042C3.39062 18.7899 3.76699 19.1831 4.23186 19.1831H32.2732C32.7376 19.1831 33.1144 18.7899 33.1144 18.3042C33.1144 17.819 32.7376 17.4253 32.2732 17.4253Z" fill="#24FF00"/>
<path d="M14.4069 32.0151C14.4069 31.5299 14.0301 31.1362 13.5657 31.1362H4.23186C3.76699 31.1362 3.39062 31.5299 3.39062 32.0151C3.39062 32.5008 3.76699 32.894 4.23186 32.894H13.5657C14.0301 32.894 14.4069 32.5008 14.4069 32.0151Z" fill="#FFEB3B"/>
<path d="M12.0392 35.5701H4.23186C3.76699 35.5701 3.39062 35.9633 3.39062 36.449C3.39062 36.9342 3.76699 37.3279 4.23186 37.3279H12.0392C12.504 37.3279 12.8804 36.9342 12.8804 36.449C12.8804 35.9633 12.504 35.5701 12.0392 35.5701Z" fill="#FFEB3B"/>
<path d="M12.0392 40.0032H4.23186C3.76699 40.0032 3.39062 40.3969 3.39062 40.8821C3.39062 41.3678 3.76699 41.761 4.23186 41.761H12.0392C12.504 41.761 12.8804 41.3678 12.8804 40.8821C12.8804 40.3969 12.504 40.0032 12.0392 40.0032Z" fill="#FFEB3B"/>
<path d="M32.2725 40.0032H28.3686C27.9037 40.0032 27.5273 40.3969 27.5273 40.8821C27.5273 41.3678 27.9037 41.761 28.3686 41.761H32.2725C32.7369 41.761 33.1137 41.3678 33.1137 40.8821C33.1137 40.3969 32.7369 40.0032 32.2725 40.0032Z" fill="#FFEB3B"/>
<path d="M32.2725 35.5701H28.3686C27.9037 35.5701 27.5273 35.9637 27.5273 36.449C27.5273 36.9342 27.9037 37.3279 28.3686 37.3279H32.2725C32.7369 37.3279 33.1137 36.9342 33.1137 36.449C33.1137 35.9637 32.7369 35.5701 32.2725 35.5701Z" fill="#FFEB3B"/>
<path d="M32.2725 31.1362H28.3686C27.9037 31.1362 27.5273 31.5299 27.5273 32.0151C27.5273 32.5008 27.9037 32.894 28.3686 32.894H32.2725C32.7369 32.894 33.1137 32.5008 33.1137 32.0151C33.1137 31.5299 32.7369 31.1362 32.2725 31.1362Z" fill="#FFEB3B"/>
<path d="M35.6611 20.6758C36.1255 20.6758 36.5023 20.2821 36.5023 19.7969V0.878906C36.5023 0.393677 36.1255 0 35.6611 0C32.9945 0 32.7711 3.51562 31.3077 3.51562C29.8451 3.51562 29.6243 0 26.9547 0C24.289 0 24.0647 3.51562 22.6026 3.51562C21.1353 3.51562 20.9241 0 18.2496 0C15.5839 0 15.3601 3.51562 13.8975 3.51562C12.4372 3.51562 12.2124 0 9.54543 0C6.87932 0 6.65586 3.51562 5.19334 3.51562C3.72599 3.51562 3.51612 0 0.841239 0C0.376367 0 0 0.393677 0 0.878906V59.1211C0 59.6063 0.376367 60 0.841239 60C3.50735 60 3.73124 56.4844 5.19334 56.4844C6.66025 56.4844 6.87099 60 9.54543 60C12.2111 60 12.435 56.4844 13.8975 56.4844C15.3649 56.4844 15.5756 60 18.2496 60C20.9157 60 21.1401 56.4844 22.6026 56.4844C24.0699 56.4844 24.2803 60 26.9547 60C29.6212 60 29.8447 56.4844 31.3077 56.4844C32.7706 56.4844 32.9915 60 35.6611 60C36.1255 60 36.5023 59.6063 36.5023 59.1211V23.0782C36.5023 22.5925 36.1255 22.1992 35.6611 22.1992C35.1962 22.1992 34.8198 22.5925 34.8198 23.0782V57.7986C33.9799 56.8286 33.3678 54.7266 31.3077 54.7266C28.6416 54.7266 28.4181 58.2422 26.9547 58.2422C25.4944 58.2422 25.2696 54.7266 22.6026 54.7266C19.9365 54.7266 19.7122 58.2422 18.2496 58.2422C16.7827 58.2422 16.572 54.7266 13.8975 54.7266C11.2314 54.7266 11.0075 58.2422 9.54543 58.2422C8.07765 58.2422 7.86777 54.7266 5.19334 54.7266C3.13449 54.7266 2.52284 56.8272 1.68248 57.7982V2.20184C2.52109 3.17093 3.13405 5.27344 5.19377 5.27344C7.85945 5.27344 8.08334 1.75781 9.54543 1.75781C11.0132 1.75781 11.2231 5.27344 13.8975 5.27344C16.5636 5.27344 16.7875 1.75781 18.2501 1.75781C19.7174 1.75781 19.9282 5.27344 22.6026 5.27344C25.2687 5.27344 25.4922 1.75781 26.9551 1.75781C28.4181 1.75781 28.6389 5.27344 31.3081 5.27344C33.3678 5.27344 33.9804 3.17139 34.8198 2.20139V19.7969C34.8198 20.2821 35.1962 20.6758 35.6611 20.6758Z" fill="white"/>
<path d="M33.1144 9.98389C33.1144 9.49866 32.7376 9.10498 32.2732 9.10498H12.0392C11.5743 9.10498 11.1979 9.49866 11.1979 9.98389C11.1979 10.4696 11.5743 10.8628 12.0392 10.8628H31.4319V12.7598H5.0731V10.8628H8.89855C9.36342 10.8628 9.73979 10.4696 9.73979 9.98389C9.73979 9.49866 9.36342 9.10498 8.89855 9.10498H4.23186C3.76699 9.10498 3.39062 9.49866 3.39062 9.98389V13.6387C3.39062 14.1239 3.76699 14.5176 4.23186 14.5176H32.2732C32.7376 14.5176 33.1144 14.1239 33.1144 13.6387V9.98389Z" fill="#24FF00"/>
<path d="M47.24 42V16.8H50.84V38.76H60.164V42H47.24ZM78.3266 38.868V42H68.2826L64.1066 39.588V26.232L68.2826 23.82H74.1506L78.3266 26.232V34.224H67.5986V38.868H78.3266ZM67.5986 26.952V31.092H74.8346V26.952H67.5986ZM82.6353 27.132V24H85.9473V20.976L89.4393 18.96V24H93.7593V27.132H89.4393V38.868H93.7593V42H90.1233L85.9473 39.588V27.132H82.6353ZM97.3658 27.132V24H100.678V20.976L104.17 18.96V24H108.49V27.132H104.17V38.868H108.49V42H104.854L100.678 39.588V27.132H97.3658ZM127.756 38.868V42H117.712L113.536 39.588V26.232L117.712 23.82H123.58L127.756 26.232V34.224H117.028V38.868H127.756ZM117.028 26.952V31.092H124.264V26.952H117.028ZM143.549 27.132H136.997V42H133.505V24H136.133L136.997 25.476L139.553 24H143.549V27.132Z" fill="#24FF00"/>
<path d="M169.84 30.66V42H166.24V16.8H169.84V27.42H181.9V16.8H185.5V42H181.9V30.66H169.84ZM205.834 38.868V42H195.79L191.614 39.588V26.232L195.79 23.82H201.658L205.834 26.232V34.224H195.106V38.868H205.834ZM195.106 26.952V31.092H202.342V26.952H195.106ZM214.355 34.62V39.048H221.591V34.62H214.355ZM215.039 42.18L210.863 39.768V33.9L215.039 31.488H221.591V27.132H212.663V24H220.907L225.083 26.412V42.18H224.147L221.591 40.704L219.035 42.18H215.039ZM235.025 23.82H240.461L243.017 25.296V15.72H246.509V42.18H243.881L243.017 40.704L240.461 42.18H235.025L230.849 39.768V26.232L235.025 23.82ZM243.017 39.048V26.952H234.341V39.048H243.017Z" fill="#FFEB3B"/>
<path d="M152.32 49.2V15.72H155.56V49.2H152.32Z" fill="white"/>
</svg>
