<svg width="470" height="512" viewBox="0 0 470 512" fill="none" xmlns="http://www.w3.org/2000/svg">
<path d="M54.8296 254.787C48.7632 248.72 40.6748 245.485 32.1819 245.485C23.689 245.485 15.6005 248.72 9.53416 254.787C3.46781 260.853 0.232422 268.942 0.232422 277.435C0.232422 285.927 3.46781 294.016 9.53416 300.082C15.6005 306.149 23.689 309.384 32.1819 309.384C40.6748 309.384 48.7632 306.149 54.8296 300.082C60.8959 294.016 64.1313 285.927 64.1313 277.435C64.1313 268.942 60.8959 260.853 54.8296 254.787Z" fill="#0D4CF2"/>
<path d="M111.045 394.717C100.934 384.202 92.8455 372.878 85.9703 360.746C80.3083 350.635 69.7933 344.569 58.065 344.569C52.8075 344.569 47.1456 345.782 42.2925 348.613C26.9244 357.106 21.2625 376.922 30.1598 392.291C39.4616 409.276 51.1898 424.644 64.5358 438.799C70.6022 445.27 79.0951 448.91 87.9924 448.91C96.0808 448.91 104.169 445.674 109.831 440.013C115.898 433.946 119.537 426.262 119.942 417.769C120.346 409.276 117.111 401.188 111.045 394.717Z" fill="#0D4CF2"/>
<path d="M337.927 454.976C332.265 442.844 320.132 434.755 307.191 434.755C303.146 434.755 299.507 435.564 295.867 436.777C276.455 444.057 255.829 448.101 235.203 448.101C220.644 448.101 206.489 446.483 192.334 442.844C191.121 442.439 189.908 442.439 189.099 442.035C186.268 441.226 183.437 440.821 180.606 440.821C166.451 440.821 153.51 450.528 149.87 464.278C147.443 472.367 148.657 481.264 152.701 488.543C156.745 495.823 163.62 501.485 172.113 503.507C173.731 503.912 175.349 504.316 176.966 504.72C195.974 509.573 215.791 512 235.608 512C264.322 512 292.631 506.743 319.323 496.632C327.412 493.397 333.478 487.735 337.118 479.646C340.758 471.962 340.758 463.065 337.927 454.976Z" fill="#0D4CF2"/>
<path d="M311.233 55.8104C316.087 51.3618 319.322 45.6998 320.94 39.2291C322.962 30.7362 321.344 22.2433 316.895 14.9637C310.829 5.66193 300.718 0 289.799 0C283.733 0 278.071 1.61769 272.813 4.85308L214.172 42.06C206.892 46.5087 202.039 53.7883 200.017 61.8768C197.995 70.3697 199.613 78.8626 204.061 86.1422L241.268 144.784C247.335 154.085 257.445 159.747 268.365 159.747C274.431 159.747 280.093 158.13 285.35 154.894C297.483 147.21 302.741 132.651 299.101 119.305C363 145.188 405.464 207.874 405.464 277.434C405.464 315.855 392.927 352.253 369.47 382.585C358.551 396.335 360.977 416.556 375.132 427.475C380.794 431.924 387.669 434.351 394.949 434.351C405.06 434.351 413.957 429.902 420.023 422.218C452.377 380.562 469.767 330.818 469.767 277.839C469.363 176.329 406.273 88.5687 311.233 55.8104Z" fill="#0D4CF2"/>
</svg>
